<?xml version="1.0" encoding="UTF-8"?>
<!DOCTYPE svg PUBLIC "-//W3C//DTD SVG 1.1//EN" "http://www.w3.org/Graphics/SVG/1.1/DTD/svg11.dtd">
<svg xmlns="http://www.w3.org/2000/svg" version="1.1" width="4500px" height="4500px" style="shape-rendering:geometricPrecision; text-rendering:geometricPrecision; image-rendering:optimizeQuality; fill-rule:evenodd; clip-rule:evenodd" xmlns:xlink="http://www.w3.org/1999/xlink">
<g><path style="opacity:0.998" fill="#807ab9" d="M 2511.5,208.5 C 2489.36,211.39 2467.03,213.89 2444.5,216C 2435.83,216.667 2427.17,216.667 2418.5,216C 2392.68,210.885 2366.68,209.552 2340.5,212C 2296.28,217.557 2268.11,241.724 2256,284.5C 2249.87,309.786 2247.04,335.453 2247.5,361.5C 2250.9,456.802 2252.24,552.136 2251.5,647.5C 2250.82,794.503 2249.82,941.503 2248.5,1088.5C 2192.91,1070.2 2140.24,1045.7 2090.5,1015C 2039.93,983.097 1991.6,948.097 1945.5,910C 1899.41,871.247 1853.91,831.747 1809,791.5C 1800.76,778.766 1796.09,764.766 1795,749.5C 1792.65,718.355 1793.99,687.355 1799,656.5C 1819.8,535.435 1857.8,420.101 1913,310.5C 1926.25,285.65 1941.25,261.984 1958,239.5C 1965.86,230.644 1974.02,222.144 1982.5,214C 1991.72,206.058 2002.38,201.392 2014.5,200C 2092.45,194.48 2170.45,189.813 2248.5,186C 2324.37,182.438 2399.7,187.104 2474.5,200C 2487.07,202.394 2499.4,205.228 2511.5,208.5 Z"/></g>
<g><path style="opacity:0.998" fill="#723f98" d="M 2511.5,208.5 C 2513.37,208.859 2514.87,209.859 2516,211.5C 2564.02,266.502 2600.02,328.836 2624,398.5C 2634.88,429.794 2644.54,461.461 2653,493.5C 2665.98,546.76 2678.65,600.094 2691,653.5C 2698.32,684.452 2706.65,715.119 2716,745.5C 2716.39,763.89 2710.22,779.724 2697.5,793C 2678.89,805.947 2660.55,819.28 2642.5,833C 2595.88,870.622 2549.54,908.622 2503.5,947C 2465.92,977.127 2426.59,1004.79 2385.5,1030C 2342.42,1055.54 2296.75,1075.04 2248.5,1088.5C 2249.82,941.503 2250.82,794.503 2251.5,647.5C 2252.24,552.136 2250.9,456.802 2247.5,361.5C 2247.04,335.453 2249.87,309.786 2256,284.5C 2268.11,241.724 2296.28,217.557 2340.5,212C 2366.68,209.552 2392.68,210.885 2418.5,216C 2427.17,216.667 2435.83,216.667 2444.5,216C 2467.03,213.89 2489.36,211.39 2511.5,208.5 Z"/></g>
<g><path style="opacity:0.998" fill="#343331" d="M 1559.5,655.5 C 1558.88,655.611 1558.38,655.944 1558,656.5C 1556.9,664.187 1555.73,671.853 1554.5,679.5C 1553.83,679.5 1553.5,679.833 1553.5,680.5C 1553.5,681.833 1553.5,683.167 1553.5,684.5C 1552.83,684.5 1552.5,684.833 1552.5,685.5C 1552.5,686.5 1552.5,687.5 1552.5,688.5C 1551.83,688.5 1551.5,688.833 1551.5,689.5C 1551.5,690.833 1551.5,692.167 1551.5,693.5C 1550.83,693.5 1550.5,693.833 1550.5,694.5C 1535,769.169 1489.66,813.335 1414.5,827C 1384.37,831.872 1354.04,834.038 1323.5,833.5C 1303.15,833.45 1282.82,832.95 1262.5,832C 1229.08,828.32 1195.74,823.987 1162.5,819C 1131.93,815.065 1101.93,817.398 1072.5,826C 1046.79,835.237 1025.46,850.404 1008.5,871.5C 922.895,917.945 872.728,989.611 858,1086.5C 855.493,1102.75 853.826,1119.08 853,1135.5C 853.427,1480.83 853.927,1826.17 854.5,2171.5C 853.68,2546.5 853.514,2921.5 854,3296.5C 853.235,3345.96 855.235,3395.29 860,3444.5C 863.308,3479.41 872.975,3512.41 889,3543.5C 908.187,3574.51 934.02,3598.35 966.5,3615C 991.765,3627.75 1017.77,3638.75 1044.5,3648C 1069.98,3656.61 1095.65,3664.61 1121.5,3672C 1207.41,3786.4 1293.07,3900.9 1378.5,4015.5C 1363.48,4015.23 1348.48,4015.57 1333.5,4016.5C 1284.83,4014.94 1236.16,4013.1 1187.5,4011C 1125.18,4006.88 1063.85,4012.54 1003.5,4028C 994.42,4030.39 985.753,4033.56 977.5,4037.5C 915.842,4027.34 857.509,4007.5 802.5,3978C 779.103,3964.64 757.103,3949.3 736.5,3932C 573.609,3826.52 481.109,3676.69 459,3482.5C 456.587,3458.56 455.254,3434.56 455,3410.5C 450.806,2660.84 450.473,1911.17 454,1161.5C 447.514,1046.73 467.848,937.067 515,832.5C 596.833,666.345 726,554.845 902.5,498C 964.761,479.153 1028.43,469.153 1093.5,468C 1146.65,466.407 1199.82,465.573 1253,465.5C 1339.83,466.091 1426.67,466.591 1513.5,467C 1533.64,467.088 1553.64,468.754 1573.5,472C 1584.9,473.783 1594.73,478.616 1603,486.5C 1608.97,495.997 1610.97,506.331 1609,517.5C 1606.43,532.872 1602.43,547.872 1597,562.5C 1584.78,593.656 1572.28,624.656 1559.5,655.5 Z"/></g>
<g><path style="opacity:0.998" fill="#353431" d="M 3495.5,4040.5 C 3489.32,4036.58 3482.65,4033.41 3475.5,4031C 3421.63,4012.9 3366.29,4006.23 3309.5,4011C 3263.39,4014.3 3217.22,4016.47 3171,4017.5C 3155.26,4017.89 3139.76,4016.89 3124.5,4014.5C 3137.73,3995.76 3151.57,3977.43 3166,3959.5C 3193.57,3927.35 3220.9,3895.02 3248,3862.5C 3282.44,3821.69 3311.77,3777.36 3336,3729.5C 3340.61,3719.28 3344.94,3708.95 3349,3698.5C 3356.26,3680.24 3369.42,3668.74 3388.5,3664C 3411.69,3660.3 3434.69,3655.63 3457.5,3650C 3554.2,3622.3 3616.7,3560.13 3645,3463.5C 3644.79,2702.17 3644.95,1940.83 3645.5,1179.5C 3646.2,1134.93 3643.37,1090.59 3637,1046.5C 3632.64,1021.39 3625.64,997.054 3616,973.5C 3575.6,939.592 3535.1,905.925 3494.5,872.5C 3471.45,842.96 3441.11,825.793 3403.5,821C 3384.51,819.111 3365.51,819.111 3346.5,821C 3321.88,824.263 3297.21,827.263 3272.5,830C 3214.82,830.908 3157.16,830.574 3099.5,829C 3074.89,827.145 3051.22,821.479 3028.5,812C 3000.4,799.401 2979.74,779.235 2966.5,751.5C 2966.5,750.833 2966.17,750.5 2965.5,750.5C 2965.5,750.167 2965.5,749.833 2965.5,749.5C 2965.67,748.508 2965.34,747.842 2964.5,747.5C 2956.99,721.113 2949.66,694.779 2942.5,668.5C 2942.5,667.5 2942.5,666.5 2942.5,665.5C 2942.5,664.833 2942.17,664.5 2941.5,664.5C 2941.8,661.941 2941.47,659.607 2940.5,657.5C 2921.87,613.774 2904.7,569.44 2889,524.5C 2881.24,489.854 2895.08,471.021 2930.5,468C 3036.83,468.009 3143.17,467.176 3249.5,465.5C 3322.99,465.129 3396.32,468.296 3469.5,475C 3535.8,480.192 3600.13,494.192 3662.5,517C 3781.2,564.372 3872.7,643.205 3937,753.5C 3959.73,792.622 3978.39,833.622 3993,876.5C 4031.41,951.989 4050.25,1032.16 4049.5,1117C 4048.97,1145.59 4047.14,1174.09 4044,1202.5C 4043.83,1222.83 4043.67,1243.17 4043.5,1263.5C 4045.68,1761.16 4047.35,2258.83 4048.5,2756.5C 4047.99,2971.17 4047.15,3185.83 4046,3400.5C 4048.61,3530.97 4014.94,3650.97 3945,3760.5C 3879.76,3855.7 3794.92,3927.87 3690.5,3977C 3628.18,4006.27 3563.18,4027.44 3495.5,4040.5 Z M 3672.5,1199.5 C 3676.46,1202.13 3680.13,1205.13 3683.5,1208.5C 3679.43,1212.4 3675.93,1216.73 3673,1221.5C 3672.5,1214.17 3672.33,1206.84 3672.5,1199.5 Z"/></g>
<g><path style="opacity:0.983" fill="#181615" d="M 1559.5,655.5 C 1562.22,727.42 1565.55,799.253 1569.5,871C 1382.5,871.5 1195.5,871.667 1008.5,871.5C 1025.46,850.404 1046.79,835.237 1072.5,826C 1101.93,817.398 1131.93,815.065 1162.5,819C 1195.74,823.987 1229.08,828.32 1262.5,832C 1282.82,832.95 1303.15,833.45 1323.5,833.5C 1354.04,834.038 1384.37,831.872 1414.5,827C 1489.66,813.335 1535,769.169 1550.5,694.5C 1551.17,694.5 1551.5,694.167 1551.5,693.5C 1551.5,692.167 1551.5,690.833 1551.5,689.5C 1552.17,689.5 1552.5,689.167 1552.5,688.5C 1552.5,687.5 1552.5,686.5 1552.5,685.5C 1553.17,685.5 1553.5,685.167 1553.5,684.5C 1553.5,683.167 1553.5,681.833 1553.5,680.5C 1554.17,680.5 1554.5,680.167 1554.5,679.5C 1555.73,671.853 1556.9,664.187 1558,656.5C 1558.38,655.944 1558.88,655.611 1559.5,655.5 Z"/></g>
<g><path style="opacity:0.987" fill="#171615" d="M 2940.5,657.5 C 2941.47,659.607 2941.8,661.941 2941.5,664.5C 2942.17,664.5 2942.5,664.833 2942.5,665.5C 2942.5,666.5 2942.5,667.5 2942.5,668.5C 2944.76,689.32 2949.26,709.653 2956,729.5C 2958.18,735.902 2961.01,741.902 2964.5,747.5C 2964.33,748.492 2964.66,749.158 2965.5,749.5C 2965.5,749.833 2965.5,750.167 2965.5,750.5C 2966.17,750.5 2966.5,750.833 2966.5,751.5C 2979.74,779.235 3000.4,799.401 3028.5,812C 3051.22,821.479 3074.89,827.145 3099.5,829C 3157.16,830.574 3214.82,830.908 3272.5,830C 3297.21,827.263 3321.88,824.263 3346.5,821C 3365.51,819.111 3384.51,819.111 3403.5,821C 3441.11,825.793 3471.45,842.96 3494.5,872.5C 3447.15,864.787 3399.49,860.287 3351.5,859C 3262.15,858.157 3172.82,858.99 3083.5,861.5C 3036.39,861.566 2989.39,859.4 2942.5,855C 2940.51,789.381 2939.84,723.548 2940.5,657.5 Z"/></g>
<g><path style="opacity:0.999" fill="#723f98" d="M 2249.5,4319.5 C 2249.99,3473.5 2250.65,2627.5 2251.5,1781.5C 2251.18,1694.16 2251.01,1606.83 2251,1519.5C 2253.41,1490.7 2261.58,1463.7 2275.5,1438.5C 2371.62,1365.93 2467.96,1293.6 2564.5,1221.5C 2684.98,1682.07 2805.14,2142.74 2925,2603.5C 2971.35,2786.25 3018.02,2968.92 3065,3151.5C 3090.55,3249.39 3116.89,3347.05 3144,3444.5C 3169.9,3532.57 3156.57,3613.9 3104,3688.5C 3031.42,3785.44 2949.25,3873.94 2857.5,3954C 2746.96,4048.49 2627.63,4130.49 2499.5,4200C 2418.01,4244.59 2334.67,4284.42 2249.5,4319.5 Z"/></g>
<g><path style="opacity:0.999" fill="#807ab9" d="M 2275.5,1438.5 C 2261.58,1463.7 2253.41,1490.7 2251,1519.5C 2251.01,1606.83 2251.18,1694.16 2251.5,1781.5C 2250.65,2627.5 2249.99,3473.5 2249.5,4319.5C 2073.21,4246.89 1908.54,4155.06 1755.5,4044C 1642.28,3960.13 1539.78,3864.3 1448,3756.5C 1425.29,3730.79 1405.29,3703.12 1388,3673.5C 1352.57,3607.83 1341.24,3538.16 1354,3464.5C 1357.39,3444.96 1361.72,3425.62 1367,3406.5C 1442.28,3120.33 1516.94,2834 1591,2547.5C 1696.33,2137.5 1801.67,1727.5 1907,1317.5C 1912.09,1298.99 1920.59,1282.32 1932.5,1267.5C 1943.52,1256.24 1956.86,1252.07 1972.5,1255C 1986.52,1257.84 1999.52,1263.18 2011.5,1271C 2023.18,1278.51 2034.52,1286.51 2045.5,1295C 2075.13,1320.29 2104.46,1345.96 2133.5,1372C 2160.59,1394.89 2190.59,1413.22 2223.5,1427C 2240.32,1433.2 2257.66,1437.03 2275.5,1438.5 Z"/></g>
<g><path style="opacity:0.985" fill="#1c1d1b" d="M 1378.5,4015.5 C 1376.94,4027.87 1372.27,4038.87 1364.5,4048.5C 1357.82,4054.84 1349.82,4057.84 1340.5,4057.5C 1334.43,4057.21 1328.43,4056.38 1322.5,4055C 1311.89,4051.8 1301.22,4048.8 1290.5,4046C 1286.06,4045.03 1281.56,4044.53 1277,4044.5C 1256,4045.25 1235,4045.91 1214,4046.5C 1135.13,4044.4 1056.3,4041.4 977.5,4037.5C 985.753,4033.56 994.42,4030.39 1003.5,4028C 1063.85,4012.54 1125.18,4006.88 1187.5,4011C 1236.16,4013.1 1284.83,4014.94 1333.5,4016.5C 1348.48,4015.57 1363.48,4015.23 1378.5,4015.5 Z"/></g>
<g><path style="opacity:0.983" fill="#0c0d0e" d="M 3495.5,4040.5 C 3372.16,4041.52 3248.83,4042.36 3125.5,4043C 3116.07,4040.05 3113.91,4034.22 3119,4025.5C 3120.88,4021.74 3122.71,4018.07 3124.5,4014.5C 3139.76,4016.89 3155.26,4017.89 3171,4017.5C 3217.22,4016.47 3263.39,4014.3 3309.5,4011C 3366.29,4006.23 3421.63,4012.9 3475.5,4031C 3482.65,4033.41 3489.32,4036.58 3495.5,4040.5 Z"/></g>
</svg>
